{
    "asset" : {
        "generator" : "Khronos glTF Blender I/O v1.7.33",
        "version" : "2.0"
    },
    "scene" : 0,
    "scenes" : [
        {
            "name" : "Scene",
            "nodes" : [
                0
            ]
        }
    ],
    "nodes" : [
        {
            "mesh" : 0,
            "name" : "Tree low",
            "rotation" : [
                0.7071068286895752,
                0,
                0,
                0.7071067094802856
            ]
        }
    ],
    "materials" : [
        {
            "doubleSided" : true,
            "name" : "wire_154185229",
            "pbrMetallicRoughness" : {
                "baseColorFactor" : [
                    0.6039000153541565,
                    0.7254999876022339,
                    0.8980000019073486,
                    1
                ],
                "metallicFactor" : 0,
                "roughnessFactor" : 0.8114382028579712
            }
        },
        {
            "doubleSided" : true,
            "name" : "wire_224086086",
            "pbrMetallicRoughness" : {
                "baseColorFactor" : [
                    0.8784000277519226,
                    0.33730000257492065,
                    0.33730000257492065,
                    1
                ],
                "metallicFactor" : 0,
                "roughnessFactor" : 0.8114382028579712
            }
        },
        {
            "doubleSided" : true,
            "name" : "Material__49",
            "pbrMetallicRoughness" : {
                "baseColorFactor" : [
                    0.5879999995231628,
                    0.5879999995231628,
                    0.5879999995231628,
                    1
                ],
                "metallicFactor" : 0,
                "roughnessFactor" : 0.8945907354354858
            }
        }
    ],
    "meshes" : [
        {
            "name" : "Tree low",
            "primitives" : [
                {
                    "attributes" : {
                        "POSITION" : 0,
                        "NORMAL" : 1,
                        "TEXCOORD_0" : 2
                    },
                    "indices" : 3,
                    "material" : 0
                },
                {
                    "attributes" : {
                        "POSITION" : 4,
                        "NORMAL" : 5,
                        "TEXCOORD_0" : 6
                    },
                    "indices" : 7,
                    "material" : 1
                },
                {
                    "attributes" : {
                        "POSITION" : 8,
                        "NORMAL" : 9,
                        "TEXCOORD_0" : 10
                    },
                    "indices" : 11,
                    "material" : 2
                }
            ]
        }
    ],
    "accessors" : [
        {
            "bufferView" : 0,
            "componentType" : 5126,
            "count" : 180,
            "max" : [
                29.362499237060547,
                39.23509979248047,
                -55.592098236083984
            ],
            "min" : [
                -36.43159866333008,
                -28.351699829101562,
                -121.38619995117188
            ],
            "type" : "VEC3"
        },
        {
            "bufferView" : 1,
            "componentType" : 5126,
            "count" : 180,
            "type" : "VEC3"
        },
        {
            "bufferView" : 2,
            "componentType" : 5126,
            "count" : 180,
            "type" : "VEC2"
        },
        {
            "bufferView" : 3,
            "componentType" : 5123,
            "count" : 348,
            "type" : "SCALAR"
        },
        {
            "bufferView" : 4,
            "componentType" : 5126,
            "count" : 77,
            "max" : [
                12.249199867248535,
                8.694899559020996,
                0
            ],
            "min" : [
                -10.637700080871582,
                -3.6338000297546387,
                -62.5635986328125
            ],
            "type" : "VEC3"
        },
        {
            "bufferView" : 5,
            "componentType" : 5126,
            "count" : 77,
            "type" : "VEC3"
        },
        {
            "bufferView" : 6,
            "componentType" : 5126,
            "count" : 77,
            "type" : "VEC2"
        },
        {
            "bufferView" : 7,
            "componentType" : 5123,
            "count" : 129,
            "type" : "SCALAR"
        },
        {
            "bufferView" : 8,
            "componentType" : 5126,
            "count" : 25,
            "max" : [
                8.645000457763672,
                5.543900012969971,
                -58.39059829711914
            ],
            "min" : [
                -3.749799966812134,
                -0.4828000068664551,
                -71.70939636230469
            ],
            "type" : "VEC3"
        },
        {
            "bufferView" : 9,
            "componentType" : 5126,
            "count" : 25,
            "type" : "VEC3"
        },
        {
            "bufferView" : 10,
            "componentType" : 5126,
            "count" : 25,
            "type" : "VEC2"
        },
        {
            "bufferView" : 11,
            "componentType" : 5123,
            "count" : 39,
            "type" : "SCALAR"
        }
    ],
    "bufferViews" : [
        {
            "buffer" : 0,
            "byteLength" : 2160,
            "byteOffset" : 0
        },
        {
            "buffer" : 0,
            "byteLength" : 2160,
            "byteOffset" : 2160
        },
        {
            "buffer" : 0,
            "byteLength" : 1440,
            "byteOffset" : 4320
        },
        {
            "buffer" : 0,
            "byteLength" : 696,
            "byteOffset" : 5760
        },
        {
            "buffer" : 0,
            "byteLength" : 924,
            "byteOffset" : 6456
        },
        {
            "buffer" : 0,
            "byteLength" : 924,
            "byteOffset" : 7380
        },
        {
            "buffer" : 0,
            "byteLength" : 616,
            "byteOffset" : 8304
        },
        {
            "buffer" : 0,
            "byteLength" : 258,
            "byteOffset" : 8920
        },
        {
            "buffer" : 0,
            "byteLength" : 300,
            "byteOffset" : 9180
        },
        {
            "buffer" : 0,
            "byteLength" : 300,
            "byteOffset" : 9480
        },
        {
            "buffer" : 0,
            "byteLength" : 200,
            "byteOffset" : 9780
        },
        {
            "buffer" : 0,
            "byteLength" : 78,
            "byteOffset" : 9980
        }
    ],
    "buffers" : [
        {
            "byteLength" : 10060,
            "uri" : "data:application/octet-stream;base64,"
        }
    ]
}
